<svg width="24" height="24" viewBox="0 0 24 24" fill="none" xmlns="http://www.w3.org/2000/svg">
<g clip-path="url(#clip0_151_9062)">
<path fill-rule="evenodd" clip-rule="evenodd" d="M13.7326 17.7323C13.3421 18.1229 12.7089 18.1229 12.3184 17.7323C11.9278 17.3418 11.9278 16.7086 12.3184 16.3181L15.6366 12.9999L15.6256 12.9999L15.6018 12.9999L15.5779 12.9999L15.5541 12.9999L15.5304 12.9999L15.5066 12.9999L15.4829 12.9999L15.4592 12.9999L15.4356 12.9999L15.412 12.9999L15.3884 12.9999L15.3648 12.9999L15.3413 12.9999L15.3177 12.9999L15.2943 12.9999L15.2708 12.9999L15.2474 12.9999L15.224 12.9999L15.2006 12.9999L15.1773 12.9999L15.1539 12.9999L15.1306 12.9999L15.1074 12.9999L15.0841 12.9999L15.0609 12.9999L15.0377 12.9999L15.0145 12.9999L14.9914 12.9999L14.9683 12.9999L14.9452 12.9999L14.9221 12.9999L14.8991 12.9999L14.8761 12.9999L14.8531 12.9999L14.8301 12.9999L14.8072 12.9999L14.7842 12.9999L14.7613 12.9999L14.7385 12.9999L14.7156 12.9999L14.6928 12.9999L14.67 12.9999L14.6472 12.9999L14.6244 12.9999L14.6017 12.9999L14.579 12.9999L14.5563 12.9999L14.5336 12.9999L14.5109 12.9999L14.4883 12.9999L14.4657 12.9999L14.4431 12.9999L14.4205 12.9999L14.398 12.9999L14.3754 12.9999L14.3529 12.9999L14.3304 12.9999L14.308 12.9999L14.2855 12.9999L14.2631 12.9999L14.2407 12.9999L14.2183 12.9999L14.1959 12.9999L14.1735 12.9999L14.1512 12.9999L14.1289 12.9999L14.1066 12.9999L14.0843 12.9999L14.062 12.9999L14.0398 12.9999L14.0175 12.9999L13.9953 12.9999L13.9731 12.9999L13.951 12.9999L13.9288 12.9999L13.9066 12.9999L13.8845 12.9999L13.8624 12.9999L13.8403 12.9999L13.8182 12.9999L13.7961 12.9999L13.7741 12.9999L13.7521 12.9999L13.73 12.9999L13.708 12.9999L13.686 12.9999L13.664 12.9999L13.6421 12.9999L13.6201 12.9999L13.5982 12.9999L13.5763 12.9999L13.5544 12.9999L13.5325 12.9999L13.5106 12.9999L13.4887 12.9999L13.4668 12.9999L13.445 12.9999L13.4232 12.9999L13.4013 12.9999L13.3795 12.9999L13.3577 12.9999L13.336 12.9999L13.3142 12.9999L13.2924 12.9999L13.2707 12.9999L13.2489 12.9999L13.2272 12.9999L13.2055 12.9999L13.1838 12.9999L13.1621 12.9999L13.1404 12.9999L13.1187 12.9999L13.097 12.9999L13.0754 12.9999L13.0537 12.9999L13.0321 12.9999L13.0104 12.9999L12.9888 12.9999L12.9672 12.9999L12.9456 12.9999L12.924 12.9999L12.9024 12.9999L12.8808 12.9999L12.8592 12.9999L12.8376 12.9999L12.8161 12.9999L12.7945 12.9999L12.773 12.9999L12.7514 12.9999L12.7299 12.9999L12.7084 12.9999L12.6868 12.9999L12.6653 12.9999L12.6438 12.9999L12.6223 12.9999L12.6008 12.9999L12.5793 12.9999L12.5578 12.9999L12.5363 12.9999L12.5148 12.9999L12.4934 12.9999L12.4719 12.9999L12.4504 12.9999L12.429 12.9999L12.4075 12.9999L12.386 12.9999L12.3646 12.9999L12.3431 12.9999L12.3217 12.9999L12.3002 12.9999L12.2788 12.9999L12.2573 12.9999L12.2359 12.9999L12.2145 12.9999L12.193 12.9999L12.1716 12.9999L12.1502 12.9999L12.1287 12.9999L12.1073 12.9999L12.0859 12.9999L12.0645 12.9999L12.043 12.9999L12.0216 12.9999L12.0002 12.9999L11.9787 12.9999L11.9573 12.9999L11.9359 12.9999L11.9145 12.9999L11.893 12.9999L11.8716 12.9999L11.8502 12.9999L11.8287 12.9999L11.8073 12.9999L11.7859 12.9999L11.7644 12.9999L11.743 12.9999L11.7216 12.9999L11.7001 12.9999L11.6787 12.9999L11.6572 12.9999L11.6358 12.9999L11.6143 12.9999L11.5929 12.9999L11.5714 12.9999L11.5499 12.9999L11.5285 12.9999L11.507 12.9999L11.4855 12.9999L11.464 12.9999L11.4425 12.9999L11.421 12.9999L11.3995 12.9999L11.378 12.9999L11.3565 12.9999L11.335 12.9999L11.3135 12.9999L11.292 12.9999L11.2705 12.9999L11.2489 12.9999L11.2274 12.9999L11.2058 12.9999L11.1843 12.9999L11.1627 12.9999L11.1411 12.9999L11.1196 12.9999L11.098 12.9999L11.0764 12.9999L11.0548 12.9999L11.0332 12.9999L11.0116 12.9999L10.9899 12.9999L10.9683 12.9999L10.9466 12.9999L10.925 12.9999L10.9033 12.9999L10.8817 12.9999L10.86 12.9999L10.8383 12.9999L10.8166 12.9999L10.7949 12.9999L10.7732 12.9999L10.7514 12.9999L10.7297 12.9999L10.7079 12.9999L10.6862 12.9999L10.6644 12.9999L10.6426 12.9999L10.6208 12.9999L10.599 12.9999L10.5772 12.9999L10.5553 12.9999L10.5335 12.9999L10.5116 12.9999L10.4898 12.9999L10.4679 12.9999L10.446 12.9999L10.4241 12.9999L10.4022 12.9999L10.3802 12.9999L10.3583 12.9999L10.3363 12.9999L10.3143 12.9999L10.2923 12.9999L10.2703 12.9999L10.2483 12.9999L10.2263 12.9999L10.2042 12.9999L10.1821 12.9999L10.16 12.9999L10.1379 12.9999L10.1158 12.9999L10.0937 12.9999L10.0716 12.9999L10.0494 12.9999L10.0272 12.9999L10.005 12.9999L9.9828 12.9999L9.96056 12.9999L9.93832 12.9999L9.91605 12.9999L9.89376 12.9999L9.87146 12.9999L9.84914 12.9999L9.82681 12.9999L9.80445 12.9999L9.78207 12.9999L9.75968 12.9999L9.73727 12.9999L9.71484 12.9999L9.69238 12.9999L9.66991 12.9999L9.64742 12.9999L9.62491 12.9999L9.60238 12.9999L9.57983 12.9999L9.55726 12.9999L9.53467 12.9999L9.51206 12.9999L9.48942 12.9999L9.46677 12.9999L9.44409 12.9999L9.42139 12.9999L9.39867 12.9999L9.37593 12.9999L9.35317 12.9999L9.33038 12.9999L9.30758 12.9999L9.28475 12.9999L9.26189 12.9999L9.23901 12.9999L9.21612 12.9999L9.19319 12.9999L9.17025 12.9999L9.14728 12.9999L9.12428 12.9999L9.10126 12.9999L9.07822 12.9999L9.05515 12.9999L9.03206 12.9999L9.00894 12.9999L8.9858 12.9999L8.96264 12.9999L8.93944 12.9999L8.91622 12.9999L8.89298 12.9999L8.86971 12.9999L8.84642 12.9999L8.82309 12.9999L8.79974 12.9999L8.77637 12.9999L8.75297 12.9999L8.72954 12.9999L8.70608 12.9999L8.6826 12.9999L8.65909 12.9999L8.63555 12.9999L8.61198 12.9999L8.58838 12.9999L8.56476 12.9999L8.54111 12.9999L8.51743 12.9999L8.49372 12.9999L8.46998 12.9999L8.44621 12.9999L8.42241 12.9999L8.39858 12.9999L8.37473 12.9999L8.35084 12.9999L8.32692 12.9999L8.30297 12.9999L8.27899 12.9999L8.25499 12.9999L8.23095 12.9999L8.20687 12.9999L8.18277 12.9999L8.15864 12.9999L8.13447 12.9999L8.11027 12.9999L8.08605 12.9999L8.06178 12.9999L8.03749 12.9999L8.01316 12.9999L7.9888 12.9999L7.96441 12.9999L7.93999 12.9999L7.91553 12.9999L7.89103 12.9999L7.86651 12.9999L7.84195 12.9999L7.81735 12.9999L7.79273 12.9999L7.76806 12.9999L7.74337 12.9999L7.71863 12.9999L7.69387 12.9999L7.66906 12.9999L7.64423 12.9999L7.61935 12.9999L7.59445 12.9999L7.5695 12.9999L7.54452 12.9999L7.5195 12.9999L7.49445 12.9999L7.46936 12.9999L7.44423 12.9999L7.41907 12.9999L7.39387 12.9999L7.36863 12.9999L7.34335 12.9999L7.31804 12.9999L7.29269 12.9999L7.2673 12.9999L7.24187 12.9999L7.2164 12.9999L7.1909 12.9999L7.16535 12.9999L7.13977 12.9999L7.11415 12.9999L7.08849 12.9999L7.06279 12.9999L7.03705 12.9999L7.01126 12.9999L6.98544 12.9999L6.95958 12.9999L6.93368 12.9999L6.90774 12.9999L6.88175 12.9999L6.85573 12.9999L6.82966 12.9999L6.80356 12.9999L6.77741 12.9999L6.75122 12.9999L6.72499 12.9999L6.69871 12.9999L6.67239 12.9999L6.64604 12.9999L6.61963 12.9999L6.59319 12.9999L6.5667 12.9999L6.54017 12.9999L6.51359 12.9999L6.48697 12.9999L6.46031 12.9999L6.43361 12.9999L6.40686 12.9999L6.38006 12.9999L6.35322 12.9999L6.32634 12.9999L6.29941 12.9999L6.27243 12.9999L6.24541 12.9999L6.21835 12.9999L6.19124 12.9999L6.16408 12.9999L6.13688 12.9999L6.10963 12.9999L6.08234 12.9999L6.055 12.9999L6.02761 12.9999L6.00017 12.9999C5.44789 12.9999 5.00017 12.5522 5.00017 11.9999C5.00017 11.4476 5.44789 10.9999 6.00017 10.9999L6.02761 10.9999L6.055 10.9999L6.08234 10.9999L6.10963 10.9999L6.13688 10.9999L6.16408 10.9999L6.19124 10.9999L6.21835 10.9999L6.24541 10.9999L6.27243 10.9999L6.29941 10.9999L6.32634 10.9999L6.35322 10.9999L6.38006 10.9999L6.40686 10.9999L6.43361 10.9999L6.46031 10.9999L6.48697 10.9999L6.51359 10.9999L6.54017 10.9999L6.5667 10.9999L6.59319 10.9999L6.61963 10.9999L6.64604 10.9999L6.67239 10.9999L6.69871 10.9999L6.72499 10.9999L6.75122 10.9999L6.77741 10.9999L6.80356 10.9999L6.82966 10.9999L6.85573 10.9999L6.88176 10.9999L6.90774 10.9999L6.93368 10.9999L6.95958 10.9999L6.98544 10.9999L7.01126 10.9999L7.03705 10.9999L7.06279 10.9999L7.08849 10.9999L7.11415 10.9999L7.13977 10.9999L7.16535 10.9999L7.1909 10.9999L7.2164 10.9999L7.24187 10.9999L7.2673 10.9999L7.29269 10.9999L7.31804 10.9999L7.34335 10.9999L7.36863 10.9999L7.39387 10.9999L7.41907 10.9999L7.44423 10.9999L7.46936 10.9999L7.49445 10.9999L7.5195 10.9999L7.54452 10.9999L7.5695 10.9999L7.59445 10.9999L7.61935 10.9999L7.64423 10.9999L7.66906 10.9999L7.69387 10.9999L7.71863 10.9999L7.74337 10.9999L7.76806 10.9999L7.79273 10.9999L7.81735 10.9999L7.84195 10.9999L7.86651 10.9999L7.89103 10.9999L7.91553 10.9999L7.93999 10.9999L7.96441 10.9999L7.9888 10.9999L8.01316 10.9999L8.03749 10.9999L8.06178 10.9999L8.08605 10.9999L8.11027 10.9999L8.13447 10.9999L8.15864 10.9999L8.18277 10.9999L8.20687 10.9999L8.23094 10.9999L8.25498 10.9999L8.27899 10.9999L8.30297 10.9999L8.32692 10.9999L8.35084 10.9999L8.37473 10.9999L8.39858 10.9999L8.42241 10.9999L8.44621 10.9999L8.46998 10.9999L8.49372 10.9999L8.51743 10.9999L8.54111 10.9999L8.56476 10.9999L8.58838 10.9999L8.61198 10.9999L8.63555 10.9999L8.65909 10.9999L8.6826 10.9999L8.70608 10.9999L8.72954 10.9999L8.75297 10.9999L8.77637 10.9999L8.79974 10.9999L8.82309 10.9999L8.84642 10.9999L8.86971 10.9999L8.89298 10.9999L8.91622 10.9999L8.93944 10.9999L8.96264 10.9999L8.9858 10.9999L9.00894 10.9999L9.03206 10.9999L9.05515 10.9999L9.07822 10.9999L9.10126 10.9999L9.12428 10.9999L9.14728 10.9999L9.17025 10.9999L9.19319 10.9999L9.21612 10.9999L9.23901 10.9999L9.26189 10.9999L9.28475 10.9999L9.30758 10.9999L9.33038 10.9999L9.35317 10.9999L9.37593 10.9999L9.39867 10.9999L9.42139 10.9999L9.44409 10.9999L9.46677 10.9999L9.48942 10.9999L9.51206 10.9999L9.53467 10.9999L9.55726 10.9999L9.57983 10.9999L9.60238 10.9999L9.62491 10.9999L9.64742 10.9999L9.66991 10.9999L9.69238 10.9999L9.71483 10.9999L9.73727 10.9999L9.75968 10.9999L9.78207 10.9999L9.80445 10.9999L9.82681 10.9999L9.84914 10.9999L9.87146 10.9999L9.89376 10.9999L9.91605 10.9999L9.93832 10.9999L9.96056 10.9999L9.9828 10.9999L10.005 10.9999L10.0272 10.9999L10.0494 10.9999L10.0716 10.9999L10.0937 10.9999L10.1158 10.9999L10.1379 10.9999L10.16 10.9999L10.1821 10.9999L10.2042 10.9999L10.2263 10.9999L10.2483 10.9999L10.2703 10.9999L10.2923 10.9999L10.3143 10.9999L10.3363 10.9999L10.3583 10.9999L10.3802 10.9999L10.4022 10.9999L10.4241 10.9999L10.446 10.9999L10.4679 10.9999L10.4898 10.9999L10.5116 10.9999L10.5335 10.9999L10.5553 10.9999L10.5772 10.9999L10.599 10.9999L10.6208 10.9999L10.6426 10.9999L10.6644 10.9999L10.6862 10.9999L10.7079 10.9999L10.7297 10.9999L10.7514 10.9999L10.7732 10.9999L10.7949 10.9999L10.8166 10.9999L10.8383 10.9999L10.86 10.9999L10.8817 10.9999L10.9033 10.9999L10.925 10.9999L10.9466 10.9999L10.9683 10.9999L10.9899 10.9999L11.0116 10.9999L11.0332 10.9999L11.0548 10.9999L11.0764 10.9999L11.098 10.9999L11.1196 10.9999L11.1411 10.9999L11.1627 10.9999L11.1843 10.9999L11.2058 10.9999L11.2274 10.9999L11.2489 10.9999L11.2705 10.9999L11.292 10.9999L11.3135 10.9999L11.335 10.9999L11.3565 10.9999L11.378 10.9999L11.3995 10.9999L11.421 10.9999L11.4425 10.9999L11.464 10.9999L11.4855 10.9999L11.507 10.9999L11.5285 10.9999L11.5499 10.9999L11.5714 10.9999L11.5929 10.9999L11.6143 10.9999L11.6358 10.9999L11.6572 10.9999L11.6787 10.9999L11.7001 10.9999L11.7216 10.9999L11.743 10.9999L11.7644 10.9999L11.7859 10.9999L11.8073 10.9999L11.8287 10.9999L11.8502 10.9999L11.8716 10.9999L11.893 10.9999L11.9145 10.9999L11.9359 10.9999L11.9573 10.9999L11.9787 10.9999L12.0002 10.9999L12.0216 10.9999L12.043 10.9999L12.0645 10.9999L12.0859 10.9999L12.1073 10.9999L12.1287 10.9999L12.1502 10.9999L12.1716 10.9999L12.193 10.9999L12.2145 10.9999L12.2359 10.9999L12.2573 10.9999L12.2788 10.9999L12.3002 10.9999L12.3217 10.9999L12.3431 10.9999L12.3646 10.9999L12.386 10.9999L12.4075 10.9999L12.429 10.9999L12.4504 10.9999L12.4719 10.9999L12.4934 10.9999L12.5148 10.9999L12.5363 10.9999L12.5578 10.9999L12.5793 10.9999L12.6008 10.9999L12.6223 10.9999L12.6438 10.9999L12.6653 10.9999L12.6868 10.9999L12.7084 10.9999L12.7299 10.9999L12.7514 10.9999L12.773 10.9999L12.7945 10.9999L12.8161 10.9999L12.8376 10.9999L12.8592 10.9999L12.8808 10.9999L12.9024 10.9999L12.924 10.9999L12.9456 10.9999L12.9672 10.9999L12.9888 10.9999L13.0104 10.9999L13.0321 10.9999L13.0537 10.9999L13.0754 10.9999L13.097 10.9999L13.1187 10.9999L13.1404 10.9999L13.1621 10.9999L13.1838 10.9999L13.2055 10.9999L13.2272 10.9999L13.2489 10.9999L13.2707 10.9999L13.2924 10.9999L13.3142 10.9999L13.336 10.9999L13.3577 10.9999L13.3795 10.9999L13.4013 10.9999L13.4232 10.9999L13.445 10.9999L13.4668 10.9999L13.4887 10.9999L13.5106 10.9999L13.5325 10.9999L13.5544 10.9999L13.5763 10.9999L13.5982 10.9999L13.6201 10.9999L13.6421 10.9999L13.664 10.9999L13.686 10.9999L13.708 10.9999L13.73 10.9999L13.7521 10.9999L13.7741 10.9999L13.7961 10.9999L13.8182 10.9999L13.8403 10.9999L13.8624 10.9999L13.8845 10.9999L13.9066 10.9999L13.9288 10.9999L13.951 10.9999L13.9731 10.9999L13.9953 10.9999L14.0175 10.9999L14.0398 10.9999L14.062 10.9999L14.0843 10.9999L14.1066 10.9999L14.1289 10.9999L14.1512 10.9999L14.1735 10.9999L14.1959 10.9999L14.2183 10.9999L14.2407 10.9999L14.2631 10.9999L14.2855 10.9999L14.308 10.9999L14.3304 10.9999L14.3529 10.9999L14.3754 10.9999L14.398 10.9999L14.4205 10.9999L14.4431 10.9999L14.4657 10.9999L14.4883 10.9999L14.5109 10.9999L14.5336 10.9999L14.5563 10.9999L14.579 10.9999L14.6017 10.9999L14.6244 10.9999L14.6472 10.9999L14.67 10.9999L14.6928 10.9999L14.7156 10.9999L14.7385 10.9999L14.7613 10.9999L14.7842 10.9999L14.8072 10.9999L14.8301 10.9999L14.8531 10.9999L14.8761 10.9999L14.8991 10.9999L14.9221 10.9999L14.9452 10.9999L14.9683 10.9999L14.9914 10.9999L15.0145 10.9999L15.0377 10.9999L15.0609 10.9999L15.0841 10.9999L15.1074 10.9999L15.1306 10.9999L15.1539 10.9999L15.1773 10.9999L15.2006 10.9999L15.224 10.9999L15.2474 10.9999L15.2708 10.9999L15.2943 10.9999L15.3177 10.9999L15.3413 10.9999L15.3648 10.9999L15.3884 10.9999L15.412 10.9999L15.4356 10.9999L15.4592 10.9999L15.4829 10.9999L15.5066 10.9999L15.5304 10.9999L15.5541 10.9999L15.5779 10.9999L15.6018 10.9999L15.6256 10.9999L15.6366 10.9999L12.3184 7.68172C11.9278 7.29119 11.9278 6.65803 12.3184 6.2675C12.7089 5.87698 13.3421 5.87698 13.7326 6.2675L18.7579 11.2928C19.1484 11.6833 19.1484 12.3165 18.7579 12.707L13.7326 17.7323Z" fill="#FBFBF8"/>
</g>
<defs>
<clipPath id="clip0_151_9062">
<rect width="24" height="24" fill="white"/>
</clipPath>
</defs>
</svg>
