<svg width="24" height="24" viewBox="0 0 24 24" fill="none" xmlns="http://www.w3.org/2000/svg">
<path d="M10.7118 9.81874C10.573 9.01928 11.1885 8.28783 11.9999 8.28783C12.8113 8.28783 13.4267 9.01928 13.288 9.81874L12.9096 11.9989C12.8328 12.4413 12.4489 12.7644 11.9999 12.7644C11.5508 12.7644 11.1669 12.4413 11.0901 11.9989L10.7118 9.81874Z" fill="white"/>
<path d="M13.1652 14.6295C13.1652 15.2476 12.6435 15.7486 11.9999 15.7486C11.3563 15.7486 10.8346 15.2476 10.8346 14.6295C10.8346 14.0114 11.3563 13.5104 11.9999 13.5104C12.6435 13.5104 13.1652 14.0114 13.1652 14.6295Z" fill="white"/>
<path fill-rule="evenodd" clip-rule="evenodd" d="M19.7247 13.9771L14.5832 5.26872C13.4222 3.30234 10.5774 3.30236 9.41647 5.26874L4.27509 13.9771C3.09438 15.9769 4.53606 18.5023 6.85845 18.5023H17.1413C19.4637 18.5023 20.9054 15.9769 19.7247 13.9771ZM10.7082 6.03134C11.2886 5.04815 12.711 5.04815 13.2915 6.03133L18.433 14.7397C19.0234 15.7396 18.3025 17.0023 17.1413 17.0023H6.85845C5.69725 17.0023 4.97642 15.7396 5.56677 14.7397L10.7082 6.03134Z" fill="white"/>
</svg>
