<svg width="24" height="24" viewBox="0 0 24 24" fill="none" xmlns="http://www.w3.org/2000/svg">
<g clip-path="url(#clip0_151_9063)">
<ellipse cx="12" cy="17.2496" rx="1.25" ry="1.24963" fill="#FBFBF8"/>
<path d="M7 9C7 9.55228 7.44772 10 8 10C8.55228 10 9 9.55228 9 9H7ZM11 14C11 14.5523 11.4477 15 12 15C12.5523 15 13 14.5523 13 14H11ZM12.8976 11.9396L12.7598 10.9492L12.8976 11.9396ZM15 9C15 9.55374 14.7948 9.95692 14.4502 10.2637C14.083 10.5907 13.5106 10.8447 12.7598 10.9492L13.0355 12.9301C14.0616 12.7873 15.0404 12.4162 15.7802 11.7574C16.5425 11.0786 17 10.1356 17 9H15ZM9 9C9 8.36861 9.26801 7.91535 9.74339 7.584C10.2533 7.22861 11.0352 7 12 7V5C10.7556 5 9.5376 5.28955 8.59975 5.94324C7.62742 6.62097 7 7.66771 7 9H9ZM12 7C12.9648 7 13.7467 7.22861 14.2566 7.584C14.732 7.91535 15 8.36861 15 9H17C17 7.66771 16.3726 6.62097 15.4002 5.94324C14.4624 5.28955 13.2444 5 12 5V7ZM11 12.9V14H13V12.9H11ZM12.7598 10.9492C11.8623 11.0741 11 11.819 11 12.9H13C13 12.9135 12.9969 12.9279 12.992 12.9396C12.9875 12.9502 12.9836 12.9537 12.9851 12.9522C12.9867 12.9504 12.9922 12.9455 13.0022 12.9404C13.012 12.9355 13.0235 12.9317 13.0355 12.9301L12.7598 10.9492Z" fill="#FBFBF8"/>
</g>
<defs>
<clipPath id="clip0_151_9063">
<rect width="24" height="24" fill="white"/>
</clipPath>
</defs>
</svg>
