<svg width="24" height="24" viewBox="0 0 24 24" fill="none" xmlns="http://www.w3.org/2000/svg">
<g clip-path="url(#clip0_151_9060)">
<path d="M18 15L18 7C18 6.44772 17.5523 6 17 6L7 6C6.44772 6 6 6.44771 6 7L6 15" stroke="#FBFBF8" stroke-width="2" stroke-linecap="round" stroke-linejoin="round"/>
<path fill-rule="evenodd" clip-rule="evenodd" d="M14.7826 11.3181C15.1732 11.7086 15.1732 12.3418 14.7826 12.7323C14.3921 13.1228 13.7589 13.1228 13.3684 12.7323L13 12.3639V12.366V12.3714V12.3768V12.3822V12.3875V12.3929V12.3983V12.4036V12.409V12.4143V12.4197V12.4251V12.4304V12.4358V12.4411V12.4465V12.4519V12.4572V12.4626V12.4679V12.4733V12.4787V12.484V12.4894V12.4947V12.5001V12.5054V12.5108V12.5162V12.5215V12.5269V12.5322V12.5376V12.5429V12.5483V12.5537V12.559V12.5644V12.5697V12.5751V12.5805V12.5858V12.5912V12.5965V12.6019V12.6073V12.6126V12.618V12.6234V12.6287V12.6341V12.6395V12.6449V12.6502V12.6556V12.661V12.6664V12.6717V12.6771V12.6825V12.6879V12.6933V12.6987V12.7041V12.7094V12.7148V12.7202V12.7256V12.731V12.7364V12.7418V12.7472V12.7526V12.7581V12.7635V12.7689V12.7743V12.7797V12.7851V12.7906V12.796V12.8014V12.8068V12.8123V12.8177V12.8231V12.8286V12.834V12.8395V12.8449V12.8504V12.8558V12.8613V12.8667V12.8722V12.8777V12.8832V12.8886V12.8941V12.8996V12.9051V12.9106V12.916V12.9215V12.927V12.9325V12.9381V12.9436V12.9491V12.9546V12.9601V12.9656V12.9712V12.9767V12.9822V12.9878V12.9933V12.9989V13.0044V13.01V13.0155V13.0211V13.0267V13.0323V13.0378V13.0434V13.049V13.0546V13.0602V13.0658V13.0714V13.077V13.0826V13.0883V13.0939V13.0995V13.1052V13.1108V13.1165V13.1221V13.1278V13.1334V13.1391V13.1448V13.1505V13.1561V13.1618V13.1675V13.1732V13.1789V13.1847V13.1904V13.1961V13.2018V13.2076V13.2133V13.2191V13.2248V13.2306V13.2363V13.2421V13.2479V13.2537V13.2595V13.2653V13.2711V13.2769V13.2827V13.2885V13.2944V13.3002V13.306V13.3119V13.3177V13.3236V13.3295V13.3354V13.3412V13.3471V13.353V13.3589V13.3648V13.3708V13.3767V13.3826V13.3886V13.3945V13.4005V13.4064V13.4124V13.4184V13.4244V13.4304V13.4364V13.4424V13.4484V13.4544V13.4605V13.4665V13.4726V13.4786V13.4847V13.4908V13.4968V13.5029V13.509V13.5151V13.5212V13.5274V13.5335V13.5396V13.5458V13.5519V13.5581V13.5643V13.5705V13.5767V13.5829V13.5891V13.5953V13.6015V13.6077V13.614V13.6202V13.6265V13.6328V13.6391V13.6454V13.6517V13.658V13.6643V13.6706V13.677V13.6833V13.6897V13.696V13.7024V13.7088V13.7152V13.7216V13.728V13.7344V13.7409V13.7473V13.7538V13.7602V13.7667V13.7732V13.7797V13.7862V13.7927V13.7992V13.8058V13.8123V13.8189V13.8254V13.832V13.8386V13.8452V13.8518V13.8584V13.8651V13.8717V13.8784V13.885V13.8917V13.8984V13.9051V13.9118V13.9185V13.9253V13.932V13.9388V13.9455V13.9523V13.9591V13.9659V13.9727V13.9795V13.9864V13.9932V14.0001C13 14.5524 12.5523 15.0001 12 15.0001C11.4478 15.0001 11 14.5524 11 14.0001V13.9932V13.9864V13.9795V13.9727V13.9659V13.9591V13.9523V13.9455V13.9388V13.932V13.9253V13.9185V13.9118V13.9051V13.8984V13.8917V13.885V13.8784V13.8717V13.8651V13.8584V13.8518V13.8452V13.8386V13.832V13.8254V13.8189V13.8123V13.8058V13.7992V13.7927V13.7862V13.7797V13.7732V13.7667V13.7602V13.7538V13.7473V13.7409V13.7344V13.728V13.7216V13.7152V13.7088V13.7024V13.696V13.6897V13.6833V13.677V13.6706V13.6643V13.658V13.6517V13.6454V13.6391V13.6328V13.6265V13.6202V13.614V13.6077V13.6015V13.5953V13.5891V13.5829V13.5767V13.5705V13.5643V13.5581V13.5519V13.5458V13.5396V13.5335V13.5274V13.5212V13.5151V13.509V13.5029V13.4968V13.4908V13.4847V13.4786V13.4726V13.4665V13.4605V13.4544V13.4484V13.4424V13.4364V13.4304V13.4244V13.4184V13.4124V13.4064V13.4005V13.3945V13.3886V13.3826V13.3767V13.3708V13.3648V13.3589V13.353V13.3471V13.3412V13.3354V13.3295V13.3236V13.3177V13.3119V13.306V13.3002V13.2944V13.2885V13.2827V13.2769V13.2711V13.2653V13.2595V13.2537V13.2479V13.2421V13.2363V13.2306V13.2248V13.2191V13.2133V13.2076V13.2018V13.1961V13.1904V13.1847V13.1789V13.1732V13.1675V13.1618V13.1561V13.1505V13.1448V13.1391V13.1334V13.1278V13.1221V13.1165V13.1108V13.1052V13.0995V13.0939V13.0883V13.0826V13.077V13.0714V13.0658V13.0602V13.0546V13.049V13.0434V13.0378V13.0323V13.0267V13.0211V13.0155V13.01V13.0044V12.9989V12.9933V12.9878V12.9822V12.9767V12.9712V12.9656V12.9601V12.9546V12.9491V12.9436V12.9381V12.9325V12.927V12.9215V12.916V12.9106L11 12.9051V12.8996V12.8941V12.8886V12.8832V12.8777V12.8722V12.8667V12.8613V12.8558V12.8504V12.8449V12.8395V12.834V12.8286V12.8231V12.8177V12.8123V12.8068V12.8014V12.796V12.7906V12.7851V12.7797V12.7743V12.7689V12.7635V12.7581V12.7526V12.7472V12.7418V12.7364V12.731V12.7256V12.7202V12.7148V12.7094V12.7041V12.6987V12.6933V12.6879V12.6825V12.6771V12.6717V12.6664V12.661V12.6556V12.6502V12.6449V12.6395V12.6341V12.6287V12.6234V12.618V12.6126V12.6073V12.6019V12.5965V12.5912V12.5858V12.5805V12.5751V12.5697V12.5644V12.559V12.5537V12.5483V12.5429V12.5376V12.5322V12.5269V12.5215V12.5162V12.5108V12.5054V12.5001V12.4947V12.4894V12.484V12.4787V12.4733V12.4679V12.4645L10.7323 12.7323C10.3417 13.1228 9.70856 13.1228 9.31804 12.7323C8.92752 12.3418 8.92752 11.7086 9.31804 11.3181L11.3432 9.29289C11.7338 8.90237 12.3669 8.90237 12.7574 9.29289L14.7826 11.3181Z" fill="#FBFBF8"/>
<path d="M6 18H18" stroke="#FBFBF8" stroke-width="2" stroke-linecap="round" stroke-linejoin="round" stroke-dasharray="0.01 3"/>
</g>
<defs>
<clipPath id="clip0_151_9060">
<rect width="24" height="24" fill="white"/>
</clipPath>
</defs>
</svg>
