<svg width="24" height="24" viewBox="0 0 24 24" fill="none" xmlns="http://www.w3.org/2000/svg">
<g clip-path="url(#clip0_151_9059)">
<path d="M6 15V6H18V15" stroke="#FBFBF8" stroke-width="2" stroke-linecap="round" stroke-linejoin="round" stroke-dasharray="0.01 3"/>
<path fill-rule="evenodd" clip-rule="evenodd" d="M13 10C13 9.44772 12.5523 9 12 9C11.4478 9 11 9.44772 11 10V10.0069V10.0137V10.0205V10.0274V10.0342V10.041V10.0478V10.0545V10.0613V10.0681V10.0748V10.0815V10.0883V10.095V10.1017V10.1084V10.115V10.1217V10.1284V10.135V10.1416V10.1483V10.1549V10.1615V10.1681V10.1746V10.1812V10.1878V10.1943V10.2008V10.2074V10.2139V10.2204V10.2269V10.2334V10.2399V10.2463V10.2528V10.2592V10.2657V10.2721V10.2785V10.2849V10.2913V10.2977V10.3041V10.3104V10.3168V10.3231V10.3295V10.3358V10.3421V10.3484V10.3547V10.361V10.3673V10.3736V10.3798V10.3861V10.3923V10.3986V10.4048V10.411V10.4172V10.4234V10.4296V10.4358V10.442V10.4481V10.4543V10.4604V10.4666V10.4727V10.4788V10.485V10.4911V10.4972V10.5032V10.5093V10.5154V10.5215V10.5275V10.5336V10.5396V10.5456V10.5517V10.5577V10.5637V10.5697V10.5757V10.5817V10.5877V10.5936V10.5996V10.6056V10.6115V10.6175V10.6234V10.6293V10.6352V10.6411V10.6471V10.653V10.6588V10.6647V10.6706V10.6765V10.6823V10.6882V10.694V10.6999V10.7057V10.7116V10.7174V10.7232V10.729V10.7348V10.7406V10.7464V10.7522V10.758V10.7637V10.7695V10.7753V10.781V10.7868V10.7925V10.7983V10.804V10.8097V10.8154V10.8211V10.8269V10.8326V10.8382V10.8439V10.8496V10.8553V10.861V10.8666V10.8723V10.878V10.8836V10.8893V10.8949V10.9006V10.9062V10.9118V10.9174V10.9231V10.9287V10.9343V10.9399V10.9455V10.9511V10.9567V10.9622V10.9678V10.9734V10.979V10.9845V10.9901V10.9957V11.0012V11.0068V11.0123V11.0178V11.0234V11.0289V11.0344V11.04V11.0455V11.051V11.0565V11.062V11.0675V11.073V11.0785V11.084V11.0895V11.095V11.1005V11.106V11.1115V11.1169V11.1224V11.1279V11.1333V11.1388V11.1443V11.1497V11.1552V11.1606V11.1661V11.1715V11.1769V11.1824V11.1878V11.1932V11.1987V11.2041V11.2095V11.215V11.2204V11.2258V11.2312V11.2366V11.242V11.2474V11.2528V11.2582V11.2637V11.2691V11.2744V11.2798V11.2852V11.2906V11.296V11.3014V11.3068V11.3122V11.3176V11.323V11.3283V11.3337V11.3391V11.3445V11.3498V11.3552V11.3606V11.366V11.3713V11.3767V11.3821V11.3874V11.3928V11.3982V11.4035V11.4089V11.4143V11.4196V11.425V11.4303V11.4357V11.4411V11.4464V11.4518V11.4571V11.4625V11.4679V11.4732V11.4786V11.4839V11.4893V11.4946V11.5V11.5054V11.5107V11.5161V11.5214V11.5268V11.5321V11.5375V11.5429V11.5482V11.5536V11.5589V11.5643V11.5697V11.575V11.5804V11.5857V11.5859L10.6568 11.2426C10.2663 10.8521 9.63312 10.8521 9.2426 11.2426C8.85208 11.6332 8.85208 12.2663 9.2426 12.6569L11.2426 14.6569C11.6332 15.0474 12.2663 15.0474 12.6569 14.6569L14.6569 12.6569C15.0474 12.2663 15.0474 11.6332 14.6569 11.2426C14.2664 10.8521 13.6332 10.8521 13.2427 11.2426L13 11.4853V11.4839V11.4786V11.4732V11.4679V11.4625V11.4571V11.4518V11.4464V11.4411V11.4357V11.4303V11.425V11.4196V11.4143V11.4089V11.4035V11.3982V11.3928V11.3874V11.3821V11.3767V11.3713V11.366V11.3606V11.3552V11.3498V11.3445V11.3391V11.3337V11.3283V11.323V11.3176V11.3122V11.3068V11.3014V11.296V11.2906V11.2852V11.2798V11.2744V11.2691V11.2637V11.2582V11.2528V11.2474V11.242V11.2366V11.2312V11.2258V11.2204V11.215V11.2095V11.2041V11.1987V11.1932V11.1878V11.1824V11.1769V11.1715V11.1661V11.1606V11.1552V11.1497V11.1443V11.1388V11.1333V11.1279V11.1224V11.1169V11.1115V11.106V11.1005V11.095V11.0895V11.084V11.0785V11.073V11.0675V11.062V11.0565V11.051V11.0455V11.04V11.0344V11.0289V11.0234V11.0178V11.0123V11.0068V11.0012V10.9957V10.9901V10.9845V10.979V10.9734V10.9678V10.9622V10.9567V10.9511V10.9455V10.9399V10.9343V10.9287V10.9231V10.9174V10.9118V10.9062V10.9006V10.8949V10.8893V10.8836V10.878V10.8723V10.8666V10.861V10.8553V10.8496V10.8439V10.8382V10.8326V10.8269V10.8211V10.8154V10.8097V10.804V10.7983V10.7925V10.7868V10.781V10.7753V10.7695V10.7637V10.758V10.7522V10.7464V10.7406V10.7348V10.729V10.7232V10.7174V10.7116V10.7057V10.6999V10.694V10.6882V10.6823V10.6765V10.6706V10.6647V10.6588V10.653V10.6471V10.6411V10.6352V10.6293V10.6234V10.6175V10.6115V10.6056V10.5996V10.5936V10.5877V10.5817V10.5757V10.5697V10.5637V10.5577V10.5517V10.5456V10.5396V10.5336V10.5275V10.5215V10.5154V10.5093V10.5032V10.4972V10.4911V10.485V10.4788V10.4727V10.4666V10.4604V10.4543V10.4481V10.442V10.4358V10.4296V10.4234V10.4172V10.411V10.4048V10.3986V10.3923V10.3861V10.3798V10.3736V10.3673V10.361V10.3547V10.3484V10.3421V10.3358V10.3295V10.3231V10.3168V10.3104V10.3041V10.2977V10.2913V10.2849V10.2785V10.2721V10.2657V10.2592V10.2528V10.2463V10.2399V10.2334V10.2269V10.2204V10.2139V10.2074V10.2008V10.1943V10.1878V10.1812V10.1746V10.1681V10.1615V10.1549V10.1483V10.1416V10.135V10.1284V10.1217V10.115V10.1084V10.1017V10.095V10.0883V10.0815V10.0748V10.0681V10.0613V10.0545V10.0478V10.041V10.0342V10.0274V10.0205V10.0137V10.0069V10Z" fill="#FBFBF8"/>
<path d="M18 18L6 18" stroke="#FBFBF8" stroke-width="2" stroke-linecap="round"/>
</g>
<defs>
<clipPath id="clip0_151_9059">
<rect width="24" height="24" fill="white"/>
</clipPath>
</defs>
</svg>
