<svg width="24" height="24" viewBox="0 0 24 24" fill="none" xmlns="http://www.w3.org/2000/svg">
<rect x="5" y="15" width="4" height="2" rx="1" fill="white"/>
<rect x="5" y="11" width="4" height="2" rx="1" fill="white"/>
<rect x="5" y="7" width="4" height="2" rx="1" fill="white"/>
<path d="M13 13.7639L13.6669 14.509L14 14.2109V13.7639H13ZM17 13.7639H16V14.2109L16.3331 14.509L17 13.7639ZM14 7C14 6.44772 14.4477 6 15 6V4C13.3431 4 12 5.34315 12 7H14ZM14 13.7639V7H12V13.7639H14ZM13 16C13 15.4078 13.2562 14.8767 13.6669 14.509L12.3331 13.0188C11.5164 13.7498 11 14.8152 11 16H13ZM15 18C13.8954 18 13 17.1046 13 16H11C11 18.2091 12.7909 20 15 20V18ZM17 16C17 17.1046 16.1046 18 15 18V20C17.2091 20 19 18.2091 19 16H17ZM16.3331 14.509C16.7438 14.8767 17 15.4078 17 16H19C19 14.8152 18.4836 13.7498 17.6669 13.0188L16.3331 14.509ZM16 7V13.7639H18V7H16ZM15 6C15.5523 6 16 6.44772 16 7H18C18 5.34315 16.6569 4 15 4V6Z" fill="white"/>
</svg>
